<svg width="683" height="683" viewBox="0 0 683 683" fill="none" xmlns="http://www.w3.org/2000/svg">
<path d="M528 66.1333C523.2 67.0667 514.8 70.1333 509.333 72.8C499.733 77.4667 495.2 81.7333 389.6 187.2C301.2 275.467 279.6 297.6 278.133 302C275.333 309.733 256.933 396.8 256.267 404.667C255.867 410 256.4 412.267 258.933 416C264.133 423.6 270.267 426.933 278 426.4C285.867 425.733 372.933 407.333 380.667 404.533C385.067 403.067 407.333 381.333 495.467 293.067C600.133 188 605.067 182.933 609.733 173.333C615.067 162.667 618.667 148.533 618.667 138.667C618.667 128.667 615.067 114.533 609.867 104.267C594.933 74.8 560.933 58.9333 528 66.1333ZM558.533 110.667C569.333 116.133 575.2 126.133 575.2 138.667C575.2 150.267 572.533 155.067 556.8 170.667L544 183.333L521.733 160.933L499.333 138.667L512 125.867C524.667 113.067 529.2 109.733 536.667 107.867C542.4 106.4 552.933 107.733 558.533 110.667ZM437.733 289.6L362 365.333L334.133 371.333C318.8 374.667 306 377.2 305.733 376.933C305.467 376.667 308 363.867 311.333 348.533L317.333 320.667L392.933 245.067L468.667 169.333L490.933 191.6L513.333 214L437.733 289.6Z" fill="white"/>
<path d="M93.3333 151.6C80.1333 156.133 70.4 166.133 66.1333 179.467C64.1333 185.333 64 205.467 64.2666 386.667L64.6666 587.333L69.2 595.733C74.2666 605.067 78.4 609.067 88.5333 614.4L95.3333 618H298.667H502L510.4 613.467C519.733 608.4 523.733 604.267 529.067 594.133L532.667 587.333L533.067 474.933C533.467 349.6 534 356.933 524.267 349.6C517.467 344.4 506.533 344.4 499.733 349.6C490.133 356.933 490.667 350.4 490.667 469.2V576H298.667H106.667V384V192H213.467C332.267 192 325.733 192.533 333.067 182.933C338.267 176.133 338.267 165.2 333.067 158.4C325.733 148.8 332.8 149.333 209.733 149.333C112.933 149.467 98.5333 149.733 93.3333 151.6Z" fill="white"/>
</svg>
