<svg width="683" height="683" viewBox="0 0 683 683" fill="none" xmlns="http://www.w3.org/2000/svg">
<g clip-path="url(#clip0_204_11)">
<path d="M264.4 2.4C254.8 5.86666 247.467 11.2 242.667 18.4C235.867 28.6667 234.667 35.2 234.667 61.4667V85.2L165.733 85.6L96.6667 86L89.2 89.4667C79.7334 93.8667 72.5334 101.067 68.1334 110.533C64.6667 117.867 64.6667 118.267 64.6667 149.333C64.6667 180.4 64.6667 180.8 68.1334 188.133C74.2667 201.2 86.9334 210.667 100.933 212.8L106.667 213.6V409.867C106.667 628.933 106.133 615.467 116.267 635.867C127.2 658 149.733 675.467 174.133 680.667C187.867 683.6 494.8 683.6 508.533 680.667C532.933 675.467 555.467 658 566.4 635.867C576.533 615.467 576 628.933 576 409.867V213.6L581.733 212.8C595.733 210.667 608.4 201.2 614.533 188.133C618 180.8 618 180.4 618 149.333C618 118.267 618 117.867 614.533 110.533C610.133 101.067 602.933 93.8667 593.467 89.4667L586 86L517.067 85.6L448.133 85.2L447.733 58.9333C447.333 33.8667 447.2 32.4 443.867 25.2C439.467 15.7333 432.267 8.53333 422.8 4.13333L415.333 0.666664L343.333 0.399997C276.8 -3.06219e-06 270.8 0.266664 264.4 2.4ZM395.467 46.1333C403.467 52 404.667 55.0667 405.067 70.8L405.6 85.3333H341.467H277.333V72.8C277.333 59.2 278.533 54.5333 283.067 49.4667C289.2 42.8 290.533 42.6667 342.933 43.0667C390 43.3333 392 43.4667 395.467 46.1333ZM566.133 131.467C573.2 136.667 575.333 140.933 575.333 149.333C575.333 157.733 573.2 162 566.133 167.2C562.533 170 562.267 170 344.267 170.4C193.733 170.667 124.533 170.4 121.067 169.333C107.6 165.467 102.4 146.933 111.6 135.867C118.667 127.6 103.333 128 342.933 128.4C562.4 128.667 562.533 128.667 566.133 131.467ZM533.067 410.267L532.667 607.333L529.2 614.8C524.8 624.267 517.6 631.467 508.133 635.867L500.667 639.333H341.333H182L174.533 635.867C165.067 631.467 157.867 624.267 153.467 614.8L150 607.333L149.6 410.267L149.333 213.333H341.333H533.333L533.067 410.267Z" fill="white"/>
<path d="M226 300.533C220.533 302.933 214.933 309.733 214 315.067C213.6 317.467 213.467 378.8 213.6 451.6C214 582.8 214 583.867 216.8 587.467C222 594.533 226.267 596.667 234.667 596.667C243.067 596.667 247.333 594.533 252.533 587.467C255.333 583.867 255.333 583.067 255.333 448C255.333 312.933 255.333 312.133 252.533 308.533C251.067 306.533 248.267 303.6 246.4 302.267C242 298.933 231.333 298 226 300.533Z" fill="white"/>
<path d="M332.667 300.533C327.2 302.933 321.6 309.733 320.667 315.067C320.267 317.467 320.133 378.8 320.267 451.6C320.667 582.8 320.667 583.867 323.467 587.467C328.667 594.533 332.933 596.667 341.333 596.667C349.733 596.667 354 594.533 359.2 587.467C362 583.867 362 583.067 362 448C362 312.933 362 312.133 359.2 308.533C357.733 306.533 354.933 303.6 353.067 302.267C348.667 298.933 338 298 332.667 300.533Z" fill="white"/>
<path d="M439.2 300.533C436.933 301.6 433.333 304.667 431.2 307.467L427.333 312.4V448.133C427.333 583.067 427.333 583.867 430.133 587.467C435.333 594.533 439.6 596.667 448 596.667C456.4 596.667 460.667 594.533 465.867 587.467C468.667 583.867 468.667 583.067 468.667 448C468.667 312.933 468.667 312.133 465.867 308.533C464.4 306.533 461.6 303.6 459.733 302.267C455.2 298.933 444.667 298 439.2 300.533Z" fill="white"/>
</g>
<defs>
<clipPath id="clip0_204_11">
<rect width="682.667" height="682.667" fill="white"/>
</clipPath>
</defs>
</svg>
